<svg width="260" height="182" viewBox="0 0 260 182" fill="none" xmlns="http://www.w3.org/2000/svg">
<g clip-path="url(#clip0)">
<path d="M123.22 0.294769L0.0739441 123.3H136.854L184.749 75.429V0.315999H152.212" fill="white"/>
<path d="M54.7956 68.6754L0.117767 123.325H54.7996V68.6714" fill="#009E59"/>
<path d="M106.106 92.5469L136.861 123.283L260.001 0.275921H123.218L75.3136 48.1521V123.263H107.848L77.1422 92.5766L107.842 61.8473H136.867L106.057 92.6773L106.104 92.5465" fill="#009E59"/>
<path d="M17.9014 157.4L19.9707 157.045V142.483L17.9014 142.128V140.516H24.541V142.128L22.4717 142.483V148.691H24.3887L29.5557 142.306L28.1719 142.128V140.516H34.0371V142.128L32.2979 142.445L26.6484 149.453L32.8184 157.083L34.5576 157.4V159H28.4893V157.4L29.8984 157.223L24.6299 150.659H22.4717V157.045L24.541 157.4V159H17.9014V157.4ZM36.2207 140.808V139.195H40.791V157.045L42.8604 157.4V159H36.2207V157.4L38.29 157.045V141.163L36.2207 140.808ZM53.7275 159C53.6514 158.628 53.5921 158.293 53.5498 157.997C53.5075 157.701 53.4779 157.405 53.4609 157.108C52.9785 157.726 52.3734 158.243 51.6455 158.657C50.9261 159.063 50.1559 159.267 49.335 159.267C47.9046 159.267 46.8171 158.92 46.0723 158.226C45.3275 157.523 44.9551 156.537 44.9551 155.268C44.9551 153.964 45.4798 152.961 46.5293 152.259C47.5872 151.548 49.0345 151.192 50.8711 151.192H53.4482V149.593C53.4482 148.789 53.1943 148.154 52.6865 147.688C52.1787 147.215 51.472 146.978 50.5664 146.978C49.9401 146.978 49.3857 147.058 48.9033 147.219C48.4294 147.38 48.0443 147.6 47.748 147.879L47.4814 149.326H45.5518V146.66C46.1781 146.161 46.9355 145.763 47.8242 145.467C48.7129 145.162 49.6777 145.01 50.7188 145.01C52.276 145.01 53.5371 145.408 54.502 146.203C55.4668 146.999 55.9492 148.137 55.9492 149.618V156.232C55.9492 156.41 55.9492 156.584 55.9492 156.753C55.9577 156.922 55.9704 157.091 55.9873 157.261L57.0029 157.4V159H53.7275ZM49.7031 157.172C50.5326 157.172 51.29 156.973 51.9756 156.575C52.6611 156.177 53.152 155.699 53.4482 155.141V152.881H50.7822C49.7581 152.881 48.9456 153.118 48.3447 153.592C47.7523 154.066 47.4561 154.641 47.4561 155.318C47.4561 155.919 47.6423 156.381 48.0146 156.702C48.387 157.015 48.9499 157.172 49.7031 157.172ZM71.6533 152.652C71.6533 154.633 71.1751 156.232 70.2188 157.451C69.2708 158.661 67.9632 159.267 66.2959 159.267C65.3988 159.267 64.6201 159.097 63.96 158.759C63.2998 158.412 62.7497 157.904 62.3096 157.235L62.0811 159H59.9229V141.163L57.8535 140.808V139.195H62.4238V146.889C62.8555 146.279 63.3887 145.814 64.0234 145.492C64.6667 145.171 65.4157 145.01 66.2705 145.01C67.9632 145.01 69.2835 145.687 70.2314 147.041C71.1794 148.395 71.6533 150.177 71.6533 152.386V152.652ZM69.1396 152.386C69.1396 150.803 68.8519 149.517 68.2764 148.526C67.7008 147.536 66.8206 147.041 65.6357 147.041C64.8656 147.041 64.2139 147.227 63.6807 147.6C63.1559 147.972 62.737 148.471 62.4238 149.098V155.166C62.737 155.801 63.1602 156.304 63.6934 156.677C64.235 157.049 64.891 157.235 65.6611 157.235C66.8376 157.235 67.7093 156.816 68.2764 155.979C68.8519 155.141 69.1396 154.032 69.1396 152.652V152.386ZM74.1416 157.4L76.2109 157.045V147.231L74.1416 146.876V145.264H78.7119V157.045L80.7812 157.4V159H74.1416V157.4ZM78.7119 141.747H76.2109V139.195H78.7119V141.747ZM82.3301 157.4L84.3994 157.045V147.231L82.3301 146.876V145.264H86.6338L86.8115 147.308C87.2686 146.58 87.8398 146.017 88.5254 145.619C89.2194 145.213 90.0065 145.01 90.8867 145.01C92.3678 145.01 93.5146 145.446 94.3271 146.317C95.1396 147.181 95.5459 148.518 95.5459 150.329V157.045L97.6152 157.4V159H90.9756V157.4L93.0449 157.045V150.38C93.0449 149.17 92.8037 148.311 92.3213 147.803C91.8473 147.295 91.1195 147.041 90.1377 147.041C89.4183 147.041 88.7793 147.215 88.2207 147.562C87.6706 147.909 87.2305 148.382 86.9004 148.983V157.045L88.9697 157.4V159H82.3301V157.4ZM114.17 140.516C116.142 140.516 117.674 141.023 118.766 142.039C119.866 143.055 120.416 144.392 120.416 146.051C120.416 147.727 119.866 149.068 118.766 150.075C117.674 151.082 116.142 151.586 114.17 151.586H110.247V157.045L112.316 157.4V159H105.677V157.4L107.746 157.045V142.483L105.677 142.128V140.516H107.746H114.17ZM110.247 149.631H114.17C115.423 149.631 116.358 149.297 116.976 148.628C117.602 147.951 117.915 147.1 117.915 146.076C117.915 145.052 117.602 144.197 116.976 143.512C116.358 142.826 115.423 142.483 114.17 142.483H110.247V149.631ZM122.435 146.876V145.264H126.738L126.979 147.257C127.369 146.554 127.847 146.004 128.414 145.606C128.99 145.209 129.646 145.01 130.382 145.01C130.576 145.01 130.775 145.027 130.979 145.061C131.19 145.086 131.351 145.116 131.461 145.149L131.131 147.473L129.709 147.396C129.049 147.396 128.494 147.553 128.046 147.866C127.597 148.171 127.25 148.603 127.005 149.161V157.045L129.074 157.4V159H122.435V157.4L124.504 157.045V147.231L122.435 146.876ZM132.959 152.005C132.959 149.974 133.509 148.302 134.609 146.99C135.71 145.67 137.203 145.01 139.091 145.01C140.987 145.01 142.485 145.666 143.585 146.978C144.694 148.289 145.248 149.965 145.248 152.005V152.284C145.248 154.332 144.698 156.008 143.598 157.312C142.497 158.615 141.004 159.267 139.116 159.267C137.212 159.267 135.71 158.615 134.609 157.312C133.509 156 132.959 154.324 132.959 152.284V152.005ZM135.46 152.284C135.46 153.74 135.765 154.942 136.374 155.89C136.992 156.838 137.906 157.312 139.116 157.312C140.301 157.312 141.202 156.838 141.82 155.89C142.438 154.942 142.747 153.74 142.747 152.284V152.005C142.747 150.566 142.438 149.368 141.82 148.412C141.202 147.456 140.293 146.978 139.091 146.978C137.889 146.978 136.983 147.456 136.374 148.412C135.765 149.368 135.46 150.566 135.46 152.005V152.284ZM153.716 157.312C154.545 157.312 155.273 157.058 155.899 156.55C156.534 156.034 156.852 155.403 156.852 154.658H159.099L159.124 154.734C159.166 155.919 158.637 156.973 157.537 157.896C156.445 158.81 155.172 159.267 153.716 159.267C151.718 159.267 150.191 158.615 149.133 157.312C148.083 156.008 147.559 154.37 147.559 152.398V151.865C147.559 149.91 148.088 148.281 149.146 146.978C150.203 145.666 151.727 145.01 153.716 145.01C154.816 145.01 155.802 145.192 156.674 145.556C157.554 145.92 158.282 146.419 158.857 147.054L158.972 150.101H156.979L156.433 147.942C156.136 147.655 155.756 147.422 155.29 147.244C154.825 147.066 154.3 146.978 153.716 146.978C152.404 146.978 151.465 147.451 150.897 148.399C150.339 149.339 150.06 150.494 150.06 151.865V152.398C150.06 153.803 150.339 154.976 150.897 155.915C151.456 156.846 152.396 157.312 153.716 157.312ZM167.833 159.267C165.92 159.267 164.397 158.632 163.263 157.362C162.137 156.084 161.574 154.43 161.574 152.398V151.84C161.574 149.885 162.154 148.26 163.313 146.965C164.481 145.661 165.861 145.01 167.452 145.01C169.297 145.01 170.694 145.568 171.642 146.686C172.598 147.803 173.076 149.292 173.076 151.154V152.716H164.164L164.126 152.779C164.151 154.1 164.486 155.187 165.129 156.042C165.772 156.888 166.674 157.312 167.833 157.312C168.679 157.312 169.42 157.193 170.055 156.956C170.698 156.711 171.252 156.376 171.718 155.953L172.695 157.578C172.204 158.052 171.553 158.454 170.74 158.784C169.936 159.106 168.967 159.267 167.833 159.267ZM167.452 146.978C166.614 146.978 165.899 147.333 165.307 148.044C164.714 148.746 164.35 149.631 164.215 150.697L164.24 150.761H170.575V150.431C170.575 149.449 170.313 148.628 169.788 147.968C169.263 147.308 168.485 146.978 167.452 146.978ZM184.807 157.362C184.358 157.989 183.808 158.463 183.156 158.784C182.513 159.106 181.764 159.267 180.909 159.267C179.233 159.267 177.922 158.661 176.974 157.451C176.034 156.232 175.564 154.633 175.564 152.652V152.386C175.564 150.177 176.034 148.395 176.974 147.041C177.922 145.687 179.242 145.01 180.935 145.01C181.747 145.01 182.462 145.162 183.08 145.467C183.706 145.763 184.24 146.195 184.68 146.762V141.163L182.61 140.808V139.195H184.68H187.181V157.045L189.25 157.4V159H185.01L184.807 157.362ZM178.065 152.652C178.065 154.032 178.349 155.141 178.916 155.979C179.483 156.816 180.359 157.235 181.544 157.235C182.289 157.235 182.915 157.066 183.423 156.728C183.931 156.389 184.35 155.911 184.68 155.293V148.92C184.358 148.344 183.939 147.887 183.423 147.549C182.907 147.21 182.289 147.041 181.569 147.041C180.376 147.041 179.492 147.536 178.916 148.526C178.349 149.517 178.065 150.803 178.065 152.386V152.652ZM200.993 156.969C200.562 157.705 200.003 158.272 199.317 158.67C198.64 159.068 197.857 159.267 196.969 159.267C195.479 159.267 194.315 158.788 193.478 157.832C192.64 156.876 192.221 155.386 192.221 153.363V147.231L190.646 146.876V145.264H192.221H194.722V153.389C194.722 154.853 194.938 155.86 195.369 156.41C195.801 156.96 196.474 157.235 197.388 157.235C198.276 157.235 199.008 157.058 199.584 156.702C200.168 156.338 200.608 155.826 200.904 155.166V147.231L199.063 146.876V145.264H200.904H203.405V157.045L204.979 157.4V159H201.158L200.993 156.969ZM206.96 146.876V145.264H211.264L211.505 147.257C211.894 146.554 212.372 146.004 212.939 145.606C213.515 145.209 214.171 145.01 214.907 145.01C215.102 145.01 215.301 145.027 215.504 145.061C215.715 145.086 215.876 145.116 215.986 145.149L215.656 147.473L214.234 147.396C213.574 147.396 213.02 147.553 212.571 147.866C212.123 148.171 211.776 148.603 211.53 149.161V157.045L213.6 157.4V159H206.96V157.4L209.029 157.045V147.231L206.96 146.876ZM223.743 159.267C221.83 159.267 220.307 158.632 219.173 157.362C218.047 156.084 217.484 154.43 217.484 152.398V151.84C217.484 149.885 218.064 148.26 219.224 146.965C220.392 145.661 221.771 145.01 223.362 145.01C225.207 145.01 226.604 145.568 227.552 146.686C228.508 147.803 228.986 149.292 228.986 151.154V152.716H220.074L220.036 152.779C220.062 154.1 220.396 155.187 221.039 156.042C221.682 156.888 222.584 157.312 223.743 157.312C224.59 157.312 225.33 157.193 225.965 156.956C226.608 156.711 227.162 156.376 227.628 155.953L228.605 157.578C228.115 158.052 227.463 158.454 226.65 158.784C225.846 159.106 224.877 159.267 223.743 159.267ZM223.362 146.978C222.524 146.978 221.809 147.333 221.217 148.044C220.624 148.746 220.26 149.631 220.125 150.697L220.15 150.761H226.485V150.431C226.485 149.449 226.223 148.628 225.698 147.968C225.174 147.308 224.395 146.978 223.362 146.978ZM241.974 149.58H240.095L239.688 147.93C239.384 147.642 238.999 147.413 238.533 147.244C238.076 147.066 237.556 146.978 236.972 146.978C236.083 146.978 235.423 147.172 234.991 147.562C234.56 147.951 234.344 148.421 234.344 148.971C234.344 149.512 234.534 149.94 234.915 150.253C235.296 150.566 236.07 150.845 237.238 151.091C238.973 151.463 240.264 151.971 241.11 152.614C241.957 153.249 242.38 154.104 242.38 155.179C242.38 156.397 241.885 157.383 240.895 158.137C239.913 158.89 238.626 159.267 237.035 159.267C235.994 159.267 235.059 159.148 234.229 158.911C233.4 158.666 232.66 158.314 232.008 157.857L231.995 154.722H233.874L234.344 156.562C234.632 156.825 235.021 157.015 235.512 157.134C236.011 157.252 236.519 157.312 237.035 157.312C237.924 157.312 238.618 157.134 239.117 156.778C239.625 156.414 239.879 155.94 239.879 155.356C239.879 154.806 239.667 154.354 239.244 153.998C238.829 153.643 238.038 153.334 236.87 153.071C235.203 152.707 233.946 152.212 233.1 151.586C232.253 150.96 231.83 150.113 231.83 149.047C231.83 147.93 232.304 146.978 233.252 146.19C234.208 145.403 235.448 145.01 236.972 145.01C238.013 145.01 238.948 145.145 239.777 145.416C240.607 145.687 241.297 146.063 241.847 146.546L241.974 149.58Z" fill="white"/>
</g>
<defs>
<clipPath id="clip0">
<rect width="260" height="181.33" fill="white"/>
</clipPath>
</defs>
</svg>
